{"title":"The.Ghosts.of.Crowley.Hall.(2008).[Unrated]-tNe","uid":6519846,"size":740468534,"categoryP":"video","categoryS":"movies","magnet":"?xt=urn:btih:951b29f1668387b6a4d625ae812be12fc7b86026&amp;dn=The.Ghosts.of.Crowley.Hall.%282008%29.%5BUnrated%5D-tNe&amp;tr=udp%3A%2F%2Ftracker.openbittorrent.com%3A80&amp;tr=udp%3A%2F%2Fopen.demonii.com%3A1337&amp;tr=udp%3A%2F%2Ftracker.coppersurfer.tk%3A6969&amp;tr=udp%3A%2F%2Fexodus.desync.com%3A6969","seeders":0,"leechers":1,"uploader":"trialNerror","files":5,"time":1309952411,"description":"\n \n \nFormat                           : MPEG-4\nFormat profile                   : Base Media\nCodec ID                         : isom\nFile size                        : 699 MiB\nDuration                         : 1h 22mn\nOverall bit rate                 : 1 185 Kbps\n\nVideo\nID                               : 1\nFormat                           : AVC\nFormat/Info                      : Advanced Video Codec\nFormat profile                   : &lt;a class=&quot;__cf_email__&quot; href=&quot;/cdn-cgi/l/email-protection&quot; data-cfemail=&quot;5419353d3a1418677a64&quot;&gt;[email&amp;#160;protected]&lt;/a&gt;&lt;script cf-hash='f9e31' type=&quot;text/javascript&quot;&gt;\n/* &lt;![CDATA[ */!function(){try{var t=&quot;currentScript&quot;in document?document.currentScript:function(){for(var t=document.getElementsByTagName(&quot;script&quot;),e=t.length;e--;)if(t[e].getAttribute(&quot;cf-hash&quot;))return t[e]}();if(t&amp;&amp;t.previousSibling){var e,r,n,i,c=t.previousSibling,a=c.getAttribute(&quot;data-cfemail&quot;);if(a){for(e=&quot;&quot;,r=parseInt(a.substr(0,2),16),n=2;a.length-n;n+=2)i=parseInt(a.substr(n,2),16)^r,e+=String.fromCharCode(i);e=document.createTextNode(e),c.parentNode.replaceChild(e,c)}}}catch(u){}}();/* ]]&gt; */&lt;/script&gt;\nFormat settings, CABAC           : Yes\nFormat settings, ReFrames        : 5 frames\nCodec ID                         : avc1\nCodec ID/Info                    : Advanced Video Coding\nDuration                         : 1h 22mn\nBit rate mode                    : Variable\nBit rate                         : 1 056 Kbps\nMaximum bit rate                 : 8 000 Kbps\nWidth                            : 624 pixels\nHeight                           : 352 pixels\nDisplay aspect ratio             : 16:9\nFrame rate mode                  : Constant\nFrame rate                       : 23.976 fps\nStandard                         : NTSC\nColor space                      : YUV\nChroma subsampling               : 4:2:0\nBit depth                        : 8 bits\nScan type                        : Progressive\nBits/(Pixel*Frame)               : 0.200\nStream size                      : 622 MiB (89%)\nLanguage                         : English\n\nAudio\nID                               : 2\nFormat                           : AAC\nFormat/Info                      : Advanced Audio Codec\nFormat version                   : Version 4\nFormat profile                   : Main\nCodec ID                         : 40\nDuration                         : 1h 22mn\nBit rate mode                    : Constant\nBit rate                         : 127 Kbps\nChannel(s)                       : 2 channels\nChannel positions                : Front: L R\nSampling rate                    : 44.1 KHz\nStream size                      : 75.1 MiB (11%)\nLanguage                         : English\n","torrent":{"xt":"urn:btih:951b29f1668387b6a4d625ae812be12fc7b86026","amp;dn":"The.Ghosts.of.Crowley.Hall.%282008%29.%5BUnrated%5D-tNe","amp;tr":["udp%3A%2F%2Ftracker.openbittorrent.com%3A80","udp%3A%2F%2Fopen.demonii.com%3A1337","udp%3A%2F%2Ftracker.coppersurfer.tk%3A6969","udp%3A%2F%2Fexodus.desync.com%3A6969"],"infoHash":"951b29f1668387b6a4d625ae812be12fc7b86026","infoHashBuffer":{"type":"Buffer","data":[149,27,41,241,102,131,135,182,164,214,37,174,129,43,225,47,199,184,96,38]},"announce":[],"urlList":[]}}